<svg xmlns="http://www.w3.org/2000/svg" viewBox="0 0 240.05 80"><defs><style>.cls-1{fill:#1f2126;}.cls-2{fill:#21cc82;}.cls-3{fill:#2d3035;}.cls-4{fill:#fff;}</style></defs><title>AirBox-黑</title><g id="图层_2" data-name="图层 2"><g id="图层_1-2" data-name="图层 1"><path class="cls-1" d="M35.87,80a9.18,9.18,0,0,1-4.57-1.22L4.57,63.35A9.17,9.17,0,0,1,0,55.43V24.56a9.16,9.16,0,0,1,4.57-7.91L31.3,1.22a9.15,9.15,0,0,1,9.14,0L67.17,16.65a9.16,9.16,0,0,1,4.57,7.91V55.43a9.17,9.17,0,0,1-4.57,7.92L40.44,78.78A9.18,9.18,0,0,1,35.87,80Zm0-76.09a5.26,5.26,0,0,0-2.61.7L6.53,20a5.24,5.24,0,0,0-2.61,4.52V55.43A5.25,5.25,0,0,0,6.53,60L33.26,75.39a5.23,5.23,0,0,0,5.22,0L65.21,60a5.25,5.25,0,0,0,2.61-4.53V24.56A5.24,5.24,0,0,0,65.21,20L38.48,4.61A5.29,5.29,0,0,0,35.87,3.91Z"/><circle class="cls-2" cx="15.54" cy="50.41" r="4"/><circle class="cls-2" cx="55.4" cy="50.41" r="4"/><path class="cls-1" d="M25.2,46.58,9,45.69a1.6,1.6,0,0,1-1.51-1.6h0A1.59,1.59,0,0,1,9,42.5l16.19-.9Z"/><path class="cls-1" d="M45.75,46.58l16.19-.89a1.6,1.6,0,0,0,1.51-1.6h0a1.59,1.59,0,0,0-1.51-1.59l-16.19-.9Z"/><path class="cls-3" d="M34.72,24.94,29,23.39a1.13,1.13,0,0,1-.82-1.23h0a1.13,1.13,0,0,1,1.1-1l5.94-.11Z"/><path class="cls-3" d="M36.23,24.94,42,23.39a1.13,1.13,0,0,0,.83-1.23h0a1.14,1.14,0,0,0-1.1-1l-5.94-.11Z"/><path class="cls-1" d="M39,31.87H31.91l1.73-12a1.84,1.84,0,0,1,1.83-1.58h0a1.84,1.84,0,0,1,1.83,1.58Z"/><path class="cls-2" d="M48.55,40.57a13,13,0,0,1-3.81,9.23,12.79,12.79,0,0,1-9.24,3.88,13.11,13.11,0,0,1-13.11-13,11.82,11.82,0,0,1,.15-1.88c0-.33.11-.65.18-1s.12-.54.2-.8a13,13,0,0,1,2-4c.12-.17.25-.34.38-.49a13.07,13.07,0,0,1,20.5,0,4.49,4.49,0,0,1,.37.49,12.46,12.46,0,0,1,1.93,4c.07.26.15.53.2.8s.12.65.16,1A11.06,11.06,0,0,1,48.55,40.57Z"/><path class="cls-4" d="M43.46,35.48l-.82-2a2.49,2.49,0,0,0-2.34-1.59H30.65a2.52,2.52,0,0,0-2.35,1.59l-.81,2a2.37,2.37,0,0,0,2.2,3.24H41.26a2.37,2.37,0,0,0,2.2-3.24Zm-9.7-1.65h3.43v2.93H33.76Zm-4.41,2.76a.39.39,0,0,1,0-.38l.81-2a.57.57,0,0,1,.53-.35h1.51v2.93H29.69A.42.42,0,0,1,29.35,36.59Zm12.25,0a.42.42,0,0,1-.34.17H38.79V33.83H40.3a.58.58,0,0,1,.53.35l.81,2A.42.42,0,0,1,41.6,36.59Z"/><path class="cls-1" d="M122.21,58H117.1a2.21,2.21,0,0,1-1.41-.43,2.41,2.41,0,0,1-.8-1.07l-2.65-7.25H97.53l-2.66,7.25a2.32,2.32,0,0,1-.77,1,2.2,2.2,0,0,1-1.41.47H87.55l14-35.52h6.76Zm-23-13.41h11.32L106.22,32.8c-.2-.52-.41-1.14-.65-1.85s-.47-1.49-.7-2.32c-.23.83-.46,1.61-.68,2.33s-.43,1.35-.65,1.89Z"/><path class="cls-2" d="M132.89,25.48a3.37,3.37,0,0,1-.32,1.48,3.93,3.93,0,0,1-.84,1.2,4,4,0,0,1-1.24.82,3.77,3.77,0,0,1-1.53.31,3.57,3.57,0,0,1-1.48-.31,3.8,3.8,0,0,1-1.22-.82,3.88,3.88,0,0,1-.82-1.2,3.51,3.51,0,0,1-.31-1.48,3.72,3.72,0,0,1,.31-1.52,4,4,0,0,1,.82-1.23,4.15,4.15,0,0,1,1.22-.82A3.74,3.74,0,0,1,129,21.6a4,4,0,0,1,1.53.31,4.39,4.39,0,0,1,1.24.82,4.07,4.07,0,0,1,.84,1.23A3.58,3.58,0,0,1,132.89,25.48Z"/><rect class="cls-1" x="125.92" y="32.83" width="6.07" height="25.2"/><path class="cls-1" d="M138.84,58V32.83h3.56a1.9,1.9,0,0,1,1.3.34,1.94,1.94,0,0,1,.49,1.18l.37,3a12,12,0,0,1,3.17-3.69,6.67,6.67,0,0,1,4.08-1.35,5.29,5.29,0,0,1,3.09.86l-.78,4.55a1,1,0,0,1-.32.62,1.13,1.13,0,0,1-.67.19,3.92,3.92,0,0,1-1-.18,7.07,7.07,0,0,0-1.7-.17,5.12,5.12,0,0,0-3.24,1.05,8,8,0,0,0-2.28,3V58Z"/><path class="cls-1" d="M159.25,58V22.51H171.5a22.88,22.88,0,0,1,6,.67,11.28,11.28,0,0,1,4,1.89,7.31,7.31,0,0,1,2.32,3,10,10,0,0,1,.74,3.93,7.61,7.61,0,0,1-.37,2.39,6.92,6.92,0,0,1-1.14,2.14,8.63,8.63,0,0,1-2,1.81,12,12,0,0,1-2.83,1.37q7.32,1.65,7.32,7.91a10.07,10.07,0,0,1-.86,4.17,9.31,9.31,0,0,1-2.51,3.31,12,12,0,0,1-4.05,2.17,17.55,17.55,0,0,1-5.5.79Zm6.6-20.14h5.28a8.82,8.82,0,0,0,5.11-1.23A4.43,4.43,0,0,0,178,32.75a4.65,4.65,0,0,0-1.57-3.95,8.21,8.21,0,0,0-4.92-1.18h-5.65Zm0,4.57V52.87h6.71a9.39,9.39,0,0,0,3.08-.44,5.42,5.42,0,0,0,2-1.18,4.33,4.33,0,0,0,1.08-1.72,6.49,6.49,0,0,0,.33-2.09,5.62,5.62,0,0,0-.36-2.07,3.82,3.82,0,0,0-1.16-1.57,5.27,5.27,0,0,0-2-1,11.13,11.13,0,0,0-3-.34Z"/><path class="cls-1" d="M201.66,32.44a14,14,0,0,1,5.13.9,11.12,11.12,0,0,1,3.91,2.58A11.55,11.55,0,0,1,213.21,40a15.53,15.53,0,0,1,.88,5.38,15.53,15.53,0,0,1-.88,5.4,11.64,11.64,0,0,1-2.51,4.1,10.92,10.92,0,0,1-3.91,2.61,14.91,14.91,0,0,1-10.26,0,11,11,0,0,1-3.94-2.61,11.68,11.68,0,0,1-2.53-4.1,16.59,16.59,0,0,1,0-10.78,11.6,11.6,0,0,1,2.53-4.08,11.24,11.24,0,0,1,3.94-2.58A14,14,0,0,1,201.66,32.44Zm0,21.29a5.34,5.34,0,0,0,4.66-2.11,10.57,10.57,0,0,0,1.51-6.19,10.72,10.72,0,0,0-1.51-6.22,6.2,6.2,0,0,0-9.37,0,10.61,10.61,0,0,0-1.52,6.2A10.52,10.52,0,0,0,197,51.61,5.4,5.4,0,0,0,201.66,53.73Z"/><path class="cls-1" d="M223.33,45l-8.28-12.21h5.85a2.06,2.06,0,0,1,1,.18,1.72,1.72,0,0,1,.56.6L227.72,42c.09-.28.19-.56.31-.84a5.33,5.33,0,0,1,.46-.83l4.24-6.63a2.51,2.51,0,0,1,.62-.69,1.31,1.31,0,0,1,.78-.22h5.58l-8.3,11.93L240.05,58h-5.84a1.6,1.6,0,0,1-1.07-.35,3.16,3.16,0,0,1-.68-.78l-5.35-8.77a4.75,4.75,0,0,1-.61,1.47l-4.72,7.3a3.69,3.69,0,0,1-.66.77,1.41,1.41,0,0,1-1,.36h-5.43Z"/></g></g></svg>