<svg width="15" height="15" viewBox="0 0 15 15" fill="none" xmlns="http://www.w3.org/2000/svg">
<path fill-rule="evenodd" clip-rule="evenodd" d="M5.20179 1.5C4.99871 1.5 4.80209 1.58206 4.65569 1.73112C4.50899 1.88048 4.425 2.08495 4.425 2.3C4.425 2.51505 4.50899 2.71952 4.65569 2.86888C4.80209 3.01794 4.99871 3.1 5.20179 3.1H6.83267C6.76833 2.92518 6.68539 2.73035 6.58129 2.53764C6.25733 1.9379 5.81288 1.5 5.20179 1.5ZM7 4.1V6.35L2.04 6.35C1.84973 6.35 1.7371 6.34961 1.6538 6.3428C1.60639 6.33893 1.58532 6.33394 1.57902 6.33214C1.55307 6.3182 1.5318 6.29693 1.51786 6.27098C1.51606 6.26468 1.51107 6.24361 1.5072 6.1962C1.50039 6.1129 1.5 6.00027 1.5 5.81L1.5 4.64C1.5 4.44973 1.50039 4.3371 1.5072 4.2538C1.51107 4.20639 1.51606 4.18532 1.51786 4.17902C1.5318 4.15307 1.55307 4.1318 1.57902 4.11786C1.58532 4.11606 1.60639 4.11107 1.6538 4.1072C1.7371 4.10039 1.84973 4.1 2.04 4.1H7ZM3.61012 3.1C3.48929 2.85325 3.425 2.57969 3.425 2.3C3.425 1.82549 3.61005 1.36864 3.94224 1.03041C4.27473 0.691872 4.72762 0.5 5.20179 0.5C6.3782 0.5 7.08286 1.3621 7.46113 2.06236C7.47438 2.0869 7.48734 2.11141 7.5 2.13588C7.51267 2.11141 7.52562 2.0869 7.53888 2.06236C7.91715 1.3621 8.62181 0.5 9.79822 0.5C10.2724 0.5 10.7253 0.691872 11.0578 1.03041C11.39 1.36864 11.575 1.82549 11.575 2.3C11.575 2.57969 11.5107 2.85325 11.3899 3.1L12.9774 3.1C13.1444 3.09999 13.2986 3.09998 13.4276 3.11052C13.5669 3.1219 13.7203 3.14802 13.8721 3.22534C14.0885 3.3356 14.2644 3.51153 14.3747 3.72791C14.452 3.87967 14.4781 4.03306 14.4895 4.17237C14.5 4.30139 14.5 4.45558 14.5 4.62268V5.82732C14.5 5.99442 14.5 6.14861 14.4895 6.27763C14.4781 6.41694 14.452 6.57033 14.3747 6.72209C14.2644 6.93848 14.0885 7.1144 13.8721 7.22466C13.7203 7.30198 13.5669 7.3281 13.4276 7.33948C13.3584 7.34514 13.2819 7.34776 13.2 7.34897V11.9402C13.2 12.287 13.2 12.5773 13.1806 12.8146C13.1604 13.0623 13.1166 13.2959 13.0038 13.5172C12.8312 13.8559 12.5559 14.1312 12.2172 14.3038C11.9959 14.4166 11.7623 14.4604 11.5146 14.4806C11.2773 14.5 10.987 14.5 10.6402 14.5L7.50121 14.5L7.5 14.5L7.49879 14.5H4.35978C4.01295 14.5 3.72271 14.5 3.48545 14.4806C3.23775 14.4604 3.0041 14.4166 2.78282 14.3038C2.44413 14.1312 2.16876 13.8559 1.99619 13.5172C1.88344 13.2959 1.83961 13.0623 1.81937 12.8146C1.79999 12.5773 1.79999 12.287 1.8 11.9402L1.8 7.34897C1.71814 7.34776 1.64163 7.34514 1.57237 7.33948C1.43306 7.3281 1.27967 7.30198 1.12791 7.22466C0.911527 7.1144 0.735599 6.93848 0.625344 6.72209C0.548021 6.57033 0.5219 6.41694 0.510518 6.27763C0.499977 6.14862 0.499988 5.99444 0.500001 5.82735L0.500001 4.62265C0.499988 4.45556 0.499977 4.30138 0.510518 4.17237C0.5219 4.03306 0.548021 3.87967 0.625344 3.72791C0.735599 3.51152 0.911526 3.3356 1.12791 3.22534C1.27967 3.14802 1.43306 3.1219 1.57237 3.11052C1.70138 3.09997 1.85556 3.09999 2.02265 3.1C2.02842 3.1 2.0342 3.1 2.04 3.1H3.61012ZM2.8 7.35V11.92C2.8 12.2923 2.80039 12.5414 2.81605 12.7331C2.83124 12.919 2.85825 13.0064 2.8872 13.0632C2.9639 13.2137 3.08628 13.3361 3.23681 13.4128C3.29362 13.4417 3.38102 13.4688 3.56688 13.4839C3.75857 13.4996 4.00772 13.5 4.38 13.5L7 13.5V7.35L2.8 7.35ZM8 7.35V13.5L10.62 13.5C10.9923 13.5 11.2414 13.4996 11.4331 13.4839C11.619 13.4688 11.7064 13.4418 11.7632 13.4128C11.9137 13.3361 12.0361 13.2137 12.1128 13.0632C12.1418 13.0064 12.1688 12.919 12.184 12.7331C12.1996 12.5414 12.2 12.2923 12.2 11.92V7.35L8 7.35ZM12.96 6.35C13.1503 6.35 13.2629 6.34961 13.3462 6.3428C13.3936 6.33893 13.4147 6.33394 13.421 6.33214C13.4469 6.3182 13.4682 6.29693 13.4821 6.27098C13.4839 6.26468 13.4889 6.24361 13.4928 6.1962C13.4996 6.1129 13.5 6.00027 13.5 5.81V4.64C13.5 4.44973 13.4996 4.3371 13.4928 4.2538C13.4889 4.20639 13.4839 4.18532 13.4821 4.17902C13.4682 4.15307 13.4469 4.1318 13.421 4.11786C13.4147 4.11606 13.3936 4.11107 13.3462 4.1072C13.2629 4.10039 13.1503 4.1 12.96 4.1H8V6.35L12.96 6.35ZM9.79822 3.1C10.0013 3.1 10.1979 3.01794 10.3443 2.86888C10.491 2.71952 10.575 2.51505 10.575 2.3C10.575 2.08495 10.491 1.88048 10.3443 1.73112C10.1979 1.58206 10.0013 1.5 9.79822 1.5C9.18712 1.5 8.74268 1.9379 8.41872 2.53764C8.31461 2.73035 8.23167 2.92518 8.16734 3.1L9.79822 3.1Z" fill="#21C980"/>
</svg>
