<svg xmlns="http://www.w3.org/2000/svg" viewBox="0 0 52.63 50.09"><defs><style>.cls-1{fill:#dfe5e2;}.cls-2{fill:#b9efe5;}.cls-3{fill:#f0f7f5;}.cls-4{fill:#a8e2d6;}.cls-5{fill:none;stroke:#a8e2d6;stroke-linecap:round;stroke-linejoin:round;}</style></defs><title>暂无空投</title><g id="图层_2" data-name="图层 2"><g id="图层_1-2" data-name="图层 1"><polygon class="cls-1" points="26.34 12.95 3.14 19.17 3.14 32.94 26.34 26.73 49.59 32.94 49.59 19.17 26.34 12.95"/><path class="cls-2" d="M26.21,50.09,4.48,44.28a1.9,1.9,0,0,1-1.42-1.83V20.11l23.15,5.21V50.09Z"/><path class="cls-3" d="M20.39,37.83l-19-6A1.9,1.9,0,0,1,.09,29.39l3-10.25,23.16,6.22L22.71,36.57a1.92,1.92,0,0,1-2.32,1.26"/><path class="cls-4" d="M26.21,50.09l21.95-5.77a1.9,1.9,0,0,0,1.43-1.83V19.16L26.21,25.33Z"/><path class="cls-3" d="M31.79,37.75l19.42-6.47a1.94,1.94,0,0,0,1.34-2.41l-3-9.71L26.12,25.33l3.35,11.13a1.92,1.92,0,0,0,2.32,1.29"/><line class="cls-5" x1="12.64" y1="2.18" x2="15.99" y2="2.18"/><line class="cls-5" x1="14.31" y1="0.5" x2="14.31" y2="3.86"/><line class="cls-5" x1="40.02" y1="12.86" x2="41.79" y2="14.63"/><line class="cls-5" x1="41.79" y1="12.86" x2="40.02" y2="14.63"/><line class="cls-5" x1="19.6" y1="9.74" x2="21.37" y2="11.51"/><line class="cls-5" x1="21.37" y1="9.74" x2="19.6" y2="11.51"/><line class="cls-5" x1="45.43" y1="4.74" x2="47.2" y2="6.51"/><line class="cls-5" x1="47.2" y1="4.74" x2="45.43" y2="6.51"/><circle class="cls-5" cx="6.43" cy="8.58" r="1.25"/><circle class="cls-5" cx="32.43" cy="2.18" r="1.25"/></g></g></svg>